<svg id="edit-note-4105_6a301fb6-a50d-4b96-8c03-56c65fcd7fe2" xmlns="http://www.w3.org/2000/svg" width="18" height="18" viewBox="0 0 18 18">
  <path id="layer2" d="M37.36,30l-6.24,6.21L29.8,39.6l3.42-1.29,6.24-6.21Z" transform="translate(-21.46 -21.6)" fill="#96969f"/>
  <path id="layer1" d="M10.55,16.19a1.2,1.2,0,0,1,.27-.42l4.38-4.38V2H12.8V3.8a.6.6,0,1,1,0,1.2H11.6a.6.6,0,1,1,0-1.2V2H9.2V3.8A.6.6,0,0,1,9.2,5H8A.6.6,0,1,1,8,3.8V2H5.6V3.8A.6.6,0,1,1,5.6,5H4.4a.6.6,0,0,1,0-1.2V2H2V18.8H9.53Z" transform="translate(-2 -2)" fill="#96969f"/>
</svg>
