<svg id="home-5948_e426c0bb-c646-4181-864b-56047c5ec35c" xmlns="http://www.w3.org/2000/svg" width="32" height="30.912" viewBox="0 0 32 30.912">
  <path id="layer2" d="M32.2,15.117,28.141,11.5V5.617a.508.508,0,0,0-.508-.508H24.081a.508.508,0,0,0-.508.508V7.426L16.477,1.1.743,14.6a.761.761,0,1,0,.994,1.152L16.457,3.128l14.73,13.123A.761.761,0,1,0,32.2,15.117Z" transform="translate(-0.456 -1.1)" fill="#96969f"/>
  <path id="layer1" d="M9,19.167V35.443a.508.508,0,0,0,.508.508h6.6a.508.508,0,0,0,.508-.508V25.8a.508.508,0,0,1,.508-.508h7.106a.508.508,0,0,1,.508.508v9.644a.508.508,0,0,0,.508.508h6.6a.508.508,0,0,0,.508-.508v-15.9L20.674,9.1Z" transform="translate(-4.663 -5.039)" fill="#96969f"/>
</svg>
