<svg xmlns="http://www.w3.org/2000/svg" viewBox="0 0 36 36">
  <g fill="currentColor">
    <path d="M33.744 16.017L29.685 12.4V6.517a.508.508 0 00-.508-.508h-3.552a.508.508 0 00-.508.508v1.809L18.021 2 2.287 15.5a.761.761 0 10.994 1.152l14.72-12.624 14.73 13.123a.761.761 0 101.013-1.134z"/>
    <path d="M6.337 16.128v16.276a.508.508 0 00.508.508h6.6a.508.508 0 00.508-.508v-9.643a.508.508 0 01.508-.508h7.106a.508.508 0 01.508.508v9.644a.508.508 0 00.508.508h6.6a.508.508 0 00.508-.508v-15.9L18.011 6.061z"/>
  </g>
</svg>
