<svg xmlns="http://www.w3.org/2000/svg" width="28" height="32" viewBox="0 0 28 32">
  <g id="Group_160" data-name="Group 160" transform="translate(-6194 -79)">
    <path id="layer2" d="M31,60H11a1,1,0,1,0,0,2H31a1,1,0,1,0,0-2Z" transform="translate(6187 49)" fill="#96969f"/>
    <path id="layer1" d="M25,36c3.85,0,7-6.35,7-10.5a7.55,7.55,0,0,0-3.95-6.7A6.6,6.6,0,0,0,26,18.1L25,18l-1,.1a6.6,6.6,0,0,0-2.1.7A7.55,7.55,0,0,0,18,25.5C18,29.65,21.149,36,25,36Z" transform="translate(6183 70)" fill="#96969f"/>
    <path id="layer2-2" data-name="layer2" d="M32,7.05V1a1,1,0,1,0-2,0V7.05Z" transform="translate(6177 79)" fill="#96969f"/>
    <path id="layer1-2" data-name="layer1" d="M13.5,36A15.728,15.728,0,0,1,9,25.5a9.65,9.65,0,0,1,3.4-7.45h-1A7.45,7.45,0,0,0,4,25.45c0,3.1,1.25,6.6,4.15,10.55ZM27,25.5A15.728,15.728,0,0,1,22.5,36h5.35C30.75,32.05,32,28.55,32,25.45A7.45,7.45,0,0,0,24.55,18h-1A9.65,9.65,0,0,1,27,25.5Z" transform="translate(6190 70)" fill="#96969f"/>
  </g>
</svg>
