<svg xmlns="http://www.w3.org/2000/svg" viewBox="0 0 36 36">
  <g fill="currentColor">
    <path d="M28 30H8a1 1 0 100 2h20a1 1 0 100-2zM18 27c3.85 0 7-6.35 7-10.5a7.55 7.55 0 00-3.95-6.7A6.6 6.6 0 0019 9.1L18 9l-1 .1a6.6 6.6 0 00-2.1.7 7.55 7.55 0 00-3.9 6.7c0 4.15 3.149 10.5 7 10.5z"/>
    <path d="M19 7.05V1a1 1 0 10-2 0v6.05z"/>
    <path d="M13.5 27A15.728 15.728 0 019 16.5a9.65 9.65 0 013.4-7.45h-1a7.45 7.45 0 00-7.4 7.4c0 3.1 1.25 6.6 4.15 10.55zM27 16.5A15.728 15.728 0 0122.5 27h5.35c2.9-3.95 4.15-7.45 4.15-10.55A7.45 7.45 0 0024.55 9h-1A9.65 9.65 0 0127 16.5z"/>
  </g>
</svg>
