<svg xmlns="http://www.w3.org/2000/svg" width="30" height="27.999" viewBox="0 0 30 27.999">
  <g id="Group_161" data-name="Group 161" transform="translate(-6257 -82)">
    <path id="layer2" d="M28,40h4v4H28Z" transform="translate(6242.001 60.001)" fill="#96969f"/>
    <path id="Path_2" data-name="Path 2" d="M30,11H23V9a5.006,5.006,0,0,0-5-5H16a5.006,5.006,0,0,0-5,5v2H4a2,2,0,0,0-2,2V24H13V20h8v4H32V13A2,2,0,0,0,30,11ZM13,11V9a3,3,0,0,1,3-3h2a3,3,0,0,1,3,3v2Z" transform="translate(6255 78)" fill="#96969f"/>
    <path id="layer1" d="M22,50H14V48H4v6H32V48H22Z" transform="translate(6254.001 56.001)" fill="#96969f"/>
  </g>
</svg>
